<svg width="114" height="32" viewBox="0 0 114 32" fill="none" xmlns="http://www.w3.org/2000/svg">
<path d="M54.4224 25.0383H50.9075C50.8852 25.0383 50.8852 25.0383 50.8741 25.0271L47.8485 21.3342L44.823 25.0271C44.8119 25.0383 44.8007 25.0383 44.7896 25.0383H41.9754C41.9532 25.0383 41.942 25.0271 41.9309 25.016C41.9309 25.0049 41.9309 24.9827 41.942 24.9715L46.4025 19.4988L41.9976 14.0818C41.9865 14.0595 41.9865 14.0484 41.9865 14.0262C41.9976 14.015 42.0088 14.0039 42.0199 14.0039H45.5349C45.546 14.0039 45.5571 14.015 45.5682 14.0262L48.2267 17.3187L50.9297 14.0262C50.9408 14.015 50.9519 14.0039 50.9631 14.0039H53.8218C53.8329 14.0039 53.8551 14.015 53.8663 14.0262C53.8774 14.0484 53.8663 14.0595 53.8551 14.0818L49.6839 19.0984L54.4669 24.9715C54.478 24.9827 54.4781 25.0049 54.4781 25.016C54.4558 25.0383 54.4447 25.0383 54.4224 25.0383Z" fill="#191825" fill-opacity="0.5"/>
<path d="M73.4322 15.9384C71.875 15.9384 70.8182 16.8839 70.5068 18.519H75.8015V18.4078C75.8015 17.1063 74.8338 15.9384 73.4322 15.9384ZM78.5267 20.2098C78.5156 20.2209 78.5045 20.232 78.4933 20.232H70.4512C70.618 22.1007 71.8305 23.1686 73.7993 23.1686C75.0117 23.1686 76.302 22.757 78.1152 21.7893C78.1485 21.767 78.1819 21.8004 78.1819 21.8338V24.3032C78.1819 24.3254 78.1708 24.3365 78.1596 24.3365C76.4689 25.0484 74.767 25.5378 73.4322 25.5378C69.9729 25.5378 67.459 23.0128 67.459 19.5424C67.459 16.0719 69.9729 13.5469 73.4322 13.5469C76.5913 13.5469 78.6157 15.6714 78.6157 18.5969C78.6157 19.0752 78.5378 20.1764 78.5267 20.2098Z" fill="#191825" fill-opacity="0.5"/>
<path d="M94.8556 11.7112C93.8656 11.7112 93.0647 10.9215 93.0647 9.95373C93.0647 8.95263 93.8656 8.14062 94.8556 8.14062C95.8455 8.14062 96.6464 8.95263 96.6464 9.95373C96.6464 10.9215 95.8455 11.7112 94.8556 11.7112ZM93.4095 25.037C93.3761 25.037 93.365 25.0259 93.365 24.9925V14.036C93.365 14.0138 93.3762 13.9915 93.3984 13.9915H96.3016C96.3238 13.9915 96.335 14.0138 96.335 14.036V24.9925C96.335 25.0259 96.3127 25.037 96.2905 25.037H93.4095Z" fill="#191825" fill-opacity="0.5"/>
<path d="M59.7391 23.391C59.2163 23.391 58.6823 23.3132 58.0594 23.1574L58.0706 16.1275C58.7936 15.8939 59.4165 15.7938 60.0394 15.7938C62.0527 15.7938 63.3986 17.2732 63.3986 19.4867C63.3986 21.856 61.9637 23.391 59.7391 23.391ZM60.5288 13.5469C59.7057 13.5469 58.8826 13.6915 58.0149 13.9918H55.1229C55.1006 13.9918 55.0784 14.0141 55.0784 14.0363V32.0005C55.946 31.8782 57.0138 31.5667 58.0594 30.8326V25.371C58.7713 25.4711 59.3609 25.5378 59.9281 25.5378C63.8881 25.5378 66.4464 23.1686 66.4464 19.4979C66.4464 15.994 64.0104 13.5469 60.5288 13.5469Z" fill="#191825" fill-opacity="0.5"/>
<path d="M88.126 22.4771C87.225 22.9554 86.413 23.1779 85.6566 23.1779C83.8658 23.1779 82.7868 21.9098 82.7868 19.7852C82.7868 17.3381 84.155 15.7475 86.2795 15.7475C86.8691 15.7475 87.4364 15.8921 88.126 16.2035V22.4771ZM88.126 8.1947V13.9232C87.2806 13.6785 86.5354 13.5673 85.779 13.5673C82.3308 13.5673 79.739 16.159 79.739 19.6073C79.739 23.0332 82.0304 25.5249 85.1895 25.5249C86.2795 25.5249 87.3029 25.2468 88.5042 24.635V25.625C89.294 25.4693 90.2061 25.1578 91.1071 24.5127V7.01562C90.2283 7.13798 89.1827 7.43831 88.126 8.1947Z" fill="#191825" fill-opacity="0.5"/>
<path d="M106.402 22.4579C105.523 22.9584 104.778 23.2031 104.11 23.2031C102.186 23.2031 101.04 21.9351 101.04 19.8105C101.04 17.3967 102.397 15.7727 104.411 15.7727C104.945 15.7727 105.601 15.9841 106.402 16.4068V22.4579ZM109.383 13.8595C109.383 13.7928 109.327 13.7372 109.261 13.7372H106.914C106.847 13.7372 106.78 13.7928 106.78 13.8595V14.26H106.724C105.646 13.7817 104.711 13.5703 103.81 13.5703C100.562 13.5703 98.0149 16.2622 98.0149 19.7104C98.0149 23.192 100.295 25.5279 103.688 25.5279C104.589 25.5279 105.757 25.4612 106.847 24.2154V25.628C107.614 25.4612 108.526 25.1386 109.383 24.5157V13.8595Z" fill="#191825" fill-opacity="0.5"/>
<path d="M33.9441 22.3002H41.2299C41.1187 23.1122 40.8406 24.0688 40.2177 25.0365H32.6427C31.7194 25.0365 30.9519 24.3135 30.8629 23.4125C30.8629 23.4014 30.8518 23.3902 30.8518 23.368V8.99663C30.8518 8.9855 30.8629 8.97438 30.8629 8.96326C30.9519 8.05114 31.7194 7.32812 32.6427 7.32812H41.2188C41.1075 8.14013 40.8295 9.11898 40.1954 10.0867H33.9441V14.0021H40.1398C40.1621 14.0021 40.1843 14.0244 40.1843 14.0466V16.7607C40.1843 16.783 40.1621 16.8052 40.1398 16.8052H33.9441V22.3002Z" fill="#191825" fill-opacity="0.5"/>
<path d="M24.8233 25.2685C24.1002 25.2685 23.6553 24.7012 23.6553 24.0115C23.6553 23.2774 24.167 22.7546 24.8233 22.7546C25.4684 22.7546 25.9801 23.2662 25.9801 24.0115C25.9801 24.7568 25.4684 25.2685 24.8233 25.2685ZM24.8233 22.6211C24.0891 22.6211 23.4551 23.1773 23.4551 24.0115C23.4551 24.8013 24.0224 25.4019 24.8233 25.4019C25.5463 25.4019 26.1803 24.8458 26.1803 24.0115C26.1803 23.1773 25.5574 22.6211 24.8233 22.6211Z" fill="#191825" fill-opacity="0.5"/>
<path d="M24.5002 23.9027V23.391H24.845C25.023 23.391 25.2232 23.4133 25.2232 23.6246C25.2232 23.8805 25.0341 23.8916 24.8228 23.8916C24.8117 23.9027 24.5002 23.9027 24.5002 23.9027ZM25.468 23.658C25.468 23.3243 25.2677 23.1797 24.8673 23.1797H24.2444V24.8259H24.5113V24.1252H24.7672L25.1899 24.8259H25.5013L25.0453 24.1029C25.29 24.0807 25.468 23.9583 25.468 23.658Z" fill="#191825" fill-opacity="0.5"/>
<path d="M111.785 15.8159C111.062 15.8159 110.617 15.2486 110.617 14.559C110.617 13.8248 111.129 13.302 111.785 13.302C112.431 13.302 112.942 13.8137 112.942 14.559C112.942 15.3042 112.431 15.8159 111.785 15.8159ZM111.785 13.1797C111.051 13.1797 110.417 13.7359 110.417 14.5701C110.417 15.3599 110.985 15.9605 111.785 15.9605C112.508 15.9605 113.142 15.4044 113.142 14.5701C113.142 13.7247 112.508 13.1797 111.785 13.1797Z" fill="#191825" fill-opacity="0.5"/>
<path d="M111.452 14.4463V13.9457H111.797C111.975 13.9457 112.175 13.968 112.175 14.1793C112.175 14.4351 111.986 14.4463 111.774 14.4463H111.452ZM112.431 14.2127C112.431 13.879 112.23 13.7344 111.83 13.7344H111.207V15.3806H111.474V14.6799H111.73L112.153 15.3806H112.464L112.008 14.6576C112.242 14.6354 112.431 14.513 112.431 14.2127Z" fill="#191825" fill-opacity="0.5"/>
<path d="M15.4238 10.0759L14.901 8.58534L10.4071 2.58985L11.208 2.38963L18.9388 9.07476L23.4882 7.77333C24.0221 7.63985 24.6339 7.60648 25.09 7.60648C23.6662 4.52531 21.0411 1.98919 17.5928 0.765622C10.7742 -1.67039 3.26595 1.9002 0.841064 8.72994C0.0846762 10.8434 -0.082174 13.0236 0.22928 15.0925L11.119 11.3106L15.4238 10.0759Z" fill="#191825" fill-opacity="0.5"/>
<path d="M25.5795 8.78516C25.179 9.04099 24.5895 9.38582 24.0111 9.57491L19.4505 10.8763L16.4138 20.6426L15.6241 20.8985L16.2692 13.4458L15.9133 11.8997L11.6419 13.1233L0.340576 15.7595C1.24157 20.0976 4.31161 23.8907 8.79432 25.4813C15.6241 27.9173 23.1212 24.3467 25.5572 17.517C26.6028 14.5915 26.5361 11.5215 25.5795 8.78516Z" fill="#191825" fill-opacity="0.5"/>
<path d="M15.9022 11.8894L16.2581 13.4355L15.613 20.8882L16.4027 20.6323L19.4394 10.866L24 9.56459C24.5784 9.37549 25.1679 9.04179 25.5684 8.77483C25.4238 8.37439 25.268 7.98507 25.0901 7.59576C24.6229 7.59576 24.0222 7.618 23.4883 7.76261L18.9389 9.06404L11.2081 2.37891L10.4073 2.57913L14.89 8.57461L15.4128 10.0651L11.108 11.2998L0.218262 15.0818C0.251632 15.3042 0.296125 15.5378 0.340619 15.7603L11.6308 13.1018L15.9022 11.8894Z" fill="white"/>
</svg>
