<svg width="175" height="32" viewBox="0 0 175 32" fill="none" xmlns="http://www.w3.org/2000/svg">
<path d="M100.757 31.14L114.061 1.03163C114.271 0.57475 114.025 0.181833 113.513 0.181833H104.192C103.92 0.197332 103.656 0.285015 103.428 0.435924C103.2 0.586832 103.016 0.795556 102.895 1.04077L89.7551 31.14C89.5632 31.606 89.8099 31.9898 90.3125 31.9898H99.4592C99.9709 31.9898 100.556 31.606 100.757 31.14ZM148.464 23.035L169.115 0.190971H144.964L139.5 8.99048H148.976L127.987 31.999H153.545L163.066 23.035H148.464ZM60.0853 0.181833H44.0945C43.6204 0.209305 43.162 0.361515 42.7657 0.623061C42.3694 0.884606 42.0492 1.2462 41.8375 1.67126L29.255 30.5095C28.8895 31.3319 29.3372 31.999 30.2327 31.999H38.155C39.0505 31.999 40.0739 31.3319 40.4212 30.5187L44.0122 22.3405H47.7312C48.8917 22.2674 49.3851 22.6969 48.7455 24.0401L45.986 30.5095C45.6387 31.3319 46.0773 31.999 46.9728 31.999H54.8951C55.371 31.974 55.8317 31.8229 56.2299 31.5612C56.6281 31.2994 56.9496 30.9365 57.1612 30.5095L60.7615 22.1852C61.8945 19.4804 60.2589 17.3879 57.8831 17.2783C59.9848 16.5199 61.9219 14.4274 62.79 12.5267L64.6541 8.14069C66.9019 3.0419 65.3028 0.11787 60.0853 0.190971M55.4251 9.28289L53.4514 13.6232C52.9945 14.6649 52.3366 14.7472 51.6787 14.7198H47.2287L50.2075 7.95793H54.4748C55.5165 8.0219 55.7815 8.39654 55.4251 9.28289ZM91.208 0.172696H74.2668C73.9275 0.190378 73.599 0.297824 73.3149 0.484053C73.0307 0.670282 72.8011 0.928617 72.6495 1.23266L59.6832 30.9299C59.4365 31.5147 59.738 31.9807 60.3777 31.9807H78.5158C84.2634 31.8985 87.562 30.6283 90.1845 24.5427L92.0486 20.4856C93.5106 17.0133 92.076 15.5056 89.3347 15.067C91.6191 14.3634 93.337 12.2161 94.0772 10.3246L95.594 7.10814C97.4581 2.81346 95.9047 0.11787 91.1988 0.172696M82.8927 20.0927L81.7414 22.4045C81.1657 24.0127 80.1606 24.4513 78.7443 24.4696H73.4445L75.9847 18.4845H81.2845C82.7831 18.5941 83.3679 18.9596 82.8927 20.0927ZM85.9355 9.43822L85.1406 11.2657L85.0218 11.5033C84.8898 11.8845 84.6354 12.2114 84.2982 12.4329C83.961 12.6543 83.56 12.758 83.1577 12.7278H78.5615L80.6632 7.88483H85.3507C86.1914 7.93966 86.3285 8.48791 85.9355 9.43822ZM116.994 0.181833L113.056 8.99048H118.676C119.059 8.99048 119.242 9.26461 119.087 9.62098L109.264 31.3685C109.099 31.7157 109.291 31.999 109.675 31.999H119.681C120.064 31.999 120.503 31.7157 120.658 31.3593L130.088 9.62098C130.179 9.43813 130.316 9.28256 130.486 9.17017C130.656 9.05779 130.853 8.99262 131.057 8.98135H136.823L142.251 0.181833H116.994ZM33.9791 11.019L35.2219 8.30516C37.7256 2.58502 36.0717 0.127008 31.1556 0.190971H19.3224C14.4521 0.127008 10.395 2.86829 8.14714 7.96707L4.4921 18.2926H1.03809L7.64457 27.2109L18.564 18.2926H15.7862L18.9935 10.8454C19.5143 9.62098 20.4098 9.03617 21.3693 8.99048H23.2333C23.6719 9.00876 23.9735 9.14582 24.1471 9.33771L29.9403 4.46737L33.9791 11.019Z" fill="#191825" fill-opacity="0.5"/>
<path d="M7.39794 29.8327L2.53674 23.674L2.28089 24.2222C0.0238999 29.3576 0.398542 31.9161 5.26888 31.9892H16.9467C21.7805 31.9161 26.0112 29.3576 28.2774 24.2222L31.7497 16.2634H34.8564L29.5566 7.33594L18.7286 16.2634H21.6983L19.5053 21.3347C18.9753 22.413 18.1712 22.9978 17.3122 23.0343H15.7589L7.39794 29.8327Z" fill="#191825" fill-opacity="0.5"/>
<path d="M172.962 0.000121574C173.392 0.000121574 173.757 0.155461 174.059 0.457002C174.36 0.758543 174.515 1.12405 174.515 1.55351C174.515 1.97384 174.36 2.33935 174.059 2.65003C173.757 2.96071 173.392 3.10691 172.962 3.10691C172.758 3.11005 172.555 3.07111 172.366 2.99251C172.178 2.91391 172.007 2.79733 171.866 2.65003C171.564 2.33935 171.409 1.97384 171.409 1.55351C171.409 1.13318 171.564 0.749405 171.866 0.457002C172.008 0.310133 172.178 0.193842 172.367 0.115274C172.555 0.0367063 172.758 -0.00248031 172.962 0.000121574ZM172.962 2.8145C173.13 2.81829 173.297 2.78783 173.452 2.72499C173.608 2.66214 173.749 2.56823 173.867 2.449C173.986 2.33132 174.081 2.19028 174.143 2.03467C174.206 1.87905 174.237 1.71216 174.232 1.54438C174.235 1.37812 174.204 1.21297 174.142 1.05902C174.079 0.905057 173.985 0.765513 173.867 0.648891C173.749 0.52922 173.608 0.435021 173.452 0.372144C173.297 0.309268 173.13 0.279057 172.962 0.283387C172.796 0.279772 172.63 0.310346 172.476 0.373218C172.322 0.436089 172.183 0.529918 172.067 0.648891C171.82 0.895607 171.701 1.19715 171.701 1.54438C171.701 1.89161 171.82 2.20228 172.067 2.449C172.313 2.69571 172.615 2.8145 172.962 2.8145ZM173.757 2.3759H173.392L172.935 1.71799H172.743V2.3759H172.414V0.703717H172.935C173.117 0.703717 173.264 0.749405 173.373 0.831644C173.483 0.92302 173.547 1.04181 173.547 1.19715C173.547 1.39818 173.437 1.55351 173.227 1.63575L173.757 2.3759ZM172.752 1.44386H172.926C173.136 1.44386 173.236 1.36162 173.236 1.20629C173.236 1.05095 173.145 0.977845 172.935 0.977845H172.752V1.44386Z" fill="#191825" fill-opacity="0.5"/>
</svg>
