<svg width="189" height="32" viewBox="0 0 189 32" fill="none" xmlns="http://www.w3.org/2000/svg">
<mask id="mask0_1156_1338" style="mask-type:luminance" maskUnits="userSpaceOnUse" x="0" y="0" width="189" height="32">
<path d="M188.746 0H0.142578V32H188.746V0Z" fill="white"/>
</mask>
<g mask="url(#mask0_1156_1338)">
<mask id="mask1_1156_1338" style="mask-type:luminance" maskUnits="userSpaceOnUse" x="0" y="0" width="189" height="32">
<path d="M188.746 0H0.142578V32H188.746V0Z" fill="white"/>
</mask>
<g mask="url(#mask1_1156_1338)">
<path d="M8.73657 21.1754L4.72506 21.1717V16.3829C4.72506 15.3552 5.12289 14.8284 5.99592 14.7032H8.7292C10.6779 14.7032 11.9377 15.9335 11.945 17.9227C11.945 19.9671 10.7147 21.1754 8.73657 21.1754ZM4.72506 8.25307V6.99325C4.72506 5.88815 5.1892 5.36508 6.21694 5.29877H8.26874C10.0259 5.29877 11.0794 6.3523 11.0794 8.11309C11.0794 9.45763 10.3574 11.0232 8.33137 11.0232H4.72506V8.25307ZM13.8495 13.0345L13.1275 12.6256L13.7574 12.0841C14.4978 11.4542 15.7245 10.0286 15.7245 7.57159C15.7245 3.81057 12.8107 1.38672 8.29821 1.38672H2.56643C1.22926 1.43461 0.157313 2.52865 0.142578 3.86582V25.2016H8.40504C13.4222 25.2016 16.6565 22.472 16.6565 18.2432C16.6565 15.974 15.6066 14.0254 13.8495 13.0345Z" fill="#191825" fill-opacity="0.5"/>
</g>
<mask id="mask2_1156_1338" style="mask-type:luminance" maskUnits="userSpaceOnUse" x="0" y="0" width="189" height="32">
<path d="M188.746 0H0.142578V32H188.746V0Z" fill="white"/>
</mask>
<g mask="url(#mask2_1156_1338)">
<path d="M182.974 7.68728C180.918 7.69096 178.97 8.63766 177.688 10.2511L177.331 10.7005L177.051 10.1959C176.137 8.53084 174.571 7.69096 172.383 7.69096C170.096 7.69096 168.56 8.96551 167.845 9.72803L167.381 10.2327L167.2 9.56595C166.943 8.60819 166.088 8.08143 164.799 8.08143H162.728L162.706 25.2842H167.407V17.6884C167.407 17.0217 167.488 16.366 167.654 15.6771C168.103 13.8427 169.337 11.8682 171.411 12.0635C172.685 12.1887 173.312 13.1759 173.312 15.0804V25.2805H178.045V17.6847C178.045 16.8522 178.123 16.226 178.31 15.6072C178.686 13.8537 179.979 12.0561 181.979 12.0561C183.427 12.0561 183.965 12.8739 183.965 15.0804V22.7645C183.965 24.4995 184.738 25.2805 186.477 25.2805H188.687L188.691 14.2995C188.706 9.90853 186.772 7.68728 182.974 7.68728ZM140.195 19.3092C140.181 19.324 138.158 21.4605 135.495 21.4605C133.068 21.4605 130.618 19.9723 130.618 16.6496C130.618 13.7801 132.519 11.7725 135.241 11.7725C136.125 11.7725 137.127 12.0893 137.285 12.6197L137.307 12.7081C137.514 13.4633 138.203 13.9827 138.98 13.979L141.555 13.9827V11.7283C141.555 8.75554 137.779 7.68359 135.234 7.68359C129.797 7.68359 125.855 11.4667 125.855 16.6791C125.855 21.8878 129.756 25.6709 135.134 25.6709C139.801 25.6709 142.336 22.6024 142.361 22.5767L142.494 22.4109L140.453 19.0256L140.195 19.3092Z" fill="#191825" fill-opacity="0.5"/>
</g>
</g>
</svg>
