<svg width="104" height="32" viewBox="0 0 104 32" fill="none" xmlns="http://www.w3.org/2000/svg">
<path d="M54.5543 8.04048C54.5543 9.19374 53.6251 10.1224 52.4718 10.1224C51.3186 10.1224 50.3899 9.19374 50.3899 8.04048C50.3899 6.88723 51.2869 5.9586 52.4718 5.9586C53.6577 5.9906 54.5543 6.91955 54.5543 8.04048ZM45.9695 12.2369V12.7495C45.9695 12.7495 44.9769 11.4676 42.8627 11.4676C39.3716 11.4676 36.6484 14.1264 36.6484 17.8099C36.6484 21.4617 39.3396 24.1522 42.8627 24.1522C45.0089 24.1522 45.9695 22.8389 45.9695 22.8389V23.3832C45.9695 23.6395 46.1622 23.8312 46.4182 23.8312H49.0124V11.787H46.4182C46.1622 11.7879 45.9695 12.0126 45.9695 12.2369ZM45.9695 19.9561C45.4895 20.661 44.5283 21.2697 43.3754 21.2697C41.3255 21.2697 39.7556 19.9884 39.7556 17.8099C39.7556 15.6317 41.3255 14.3504 43.3754 14.3504C44.4966 14.3504 45.5215 14.9911 45.9695 15.6637V19.9561ZM50.9346 11.7879H54.0094V23.8322H50.9346V11.7879ZM96.868 11.4673C94.7538 11.4673 93.7606 12.7492 93.7606 12.7492V5.9906H90.6858V23.8322H93.2806C93.5369 23.8322 93.7286 23.6078 93.7286 23.3835V22.8392C93.7286 22.8392 94.7218 24.1525 96.8354 24.1525C100.327 24.1525 103.05 21.4626 103.05 17.8108C103.05 14.1591 100.327 11.4673 96.868 11.4673ZM96.3554 21.2373C95.1698 21.2373 94.2412 20.6293 93.7606 19.9241V15.6317C94.2412 14.9911 95.2661 14.3184 96.3554 14.3184C98.4053 14.3184 99.9748 15.5997 99.9748 17.7779C99.9748 19.9561 98.4056 21.2373 96.3554 21.2373ZM89.0845 16.6893V23.8642H86.009V17.0413C86.009 15.0557 85.3684 14.2544 83.6398 14.2544C82.7112 14.2544 81.7499 14.7351 81.1403 15.44V23.8325H78.0662V11.7882H80.4997C80.756 11.7882 80.9484 12.0126 80.9484 12.2369V12.7495C81.8453 11.8202 83.0302 11.4676 84.2152 11.4676C85.5607 11.4676 86.682 11.8526 87.5789 12.6212C88.6676 13.5181 89.0845 14.6711 89.0845 16.6893ZM70.6017 11.4673C68.4881 11.4673 67.4949 12.7492 67.4949 12.7492V5.9906H64.4201V23.8322H67.0142C67.2706 23.8322 67.4629 23.6078 67.4629 23.3835V22.8392C67.4629 22.8392 68.4561 24.1525 70.5697 24.1525C74.0614 24.1525 76.784 21.4626 76.784 17.8108C76.816 14.1588 74.0935 11.4673 70.6017 11.4673ZM70.0891 21.2373C68.9041 21.2373 67.9755 20.6293 67.4949 19.9241V15.6317C67.9755 14.9911 69.0004 14.3184 70.0891 14.3184C72.1396 14.3184 73.7088 15.5997 73.7088 17.7779C73.7088 19.9561 72.1396 21.2373 70.0891 21.2373ZM61.7612 11.4673C62.6898 11.4673 63.1705 11.6279 63.1705 11.6279V14.4784C63.1705 14.4784 60.608 13.6135 59.0067 15.4397V23.8638H55.9313V11.7879H58.5261C58.7824 11.7879 58.9741 12.0122 58.9741 12.2366V12.7492C59.5513 12.0762 60.8006 11.4673 61.7612 11.4673ZM29.8262 22.7429C29.6662 22.3586 29.5059 21.9423 29.3459 21.5897C29.0892 21.0133 28.8329 20.4684 28.6093 19.9561L28.5773 19.9241C26.3667 15.1191 23.9969 10.2507 21.498 5.4463L21.402 5.25365C21.1392 4.75525 20.8831 4.25336 20.6337 3.74809C20.3131 3.17114 19.9931 2.56315 19.4805 1.9862C18.4555 0.704946 16.982 0 15.4127 0C13.8108 0 12.3696 0.70495 11.313 1.92189C10.8323 2.49819 10.4797 3.10683 10.1597 3.68377C9.90971 4.18872 9.65359 4.69061 9.3914 5.18934L9.29508 5.38197C6.82857 10.1864 4.42638 15.0551 2.21618 19.8598L2.18387 19.9234C1.95988 20.4367 1.70324 20.981 1.44692 21.557C1.28693 21.9096 1.12693 22.294 0.966932 22.7103C0.550301 23.8952 0.421977 25.0165 0.582614 26.17C0.934927 28.5726 2.53617 30.5898 4.74669 31.4874C5.57963 31.84 6.44458 32 7.3412 32C7.59751 32 7.91752 31.968 8.17415 31.9357C9.23141 31.8077 10.3203 31.4557 11.3776 30.8471C12.6909 30.1101 13.9401 29.0535 15.3494 27.5159C16.7586 29.0535 18.0399 30.1101 19.3211 30.8471C20.3787 31.4557 21.4673 31.8077 22.5243 31.9357C22.7806 31.9683 23.1012 32 23.3575 32C24.2545 32 25.1511 31.84 25.9517 31.4874C28.1942 30.5898 29.7635 28.5406 30.1161 26.17C30.3705 25.0491 30.2425 23.9285 29.8262 22.7429ZM15.3804 24.4085C13.6505 22.2303 12.5293 20.1804 12.1453 18.4512C11.9853 17.7142 11.9529 17.0736 12.0493 16.497C12.1129 15.9843 12.3056 15.5357 12.5619 15.1514C13.1705 14.2871 14.1955 13.7421 15.3807 13.7421C16.5663 13.7421 17.6232 14.2548 18.1999 15.1514C18.4562 15.5357 18.6482 15.9846 18.7128 16.497C18.8085 17.0739 18.7765 17.7462 18.6165 18.4512C18.2309 20.1484 17.1096 22.1986 15.3804 24.4085ZM28.1603 25.914C27.9363 27.5796 26.815 29.0215 25.2458 29.6621C24.4772 29.9821 23.6439 30.0784 22.8116 29.9821C22.011 29.8858 21.2097 29.6295 20.3774 29.1495C19.2242 28.5082 18.0712 27.5159 16.7257 26.042C18.8395 23.4478 20.1208 21.077 20.6014 18.9635C20.8257 17.9702 20.8581 17.0736 20.7614 16.2403C20.6337 15.4397 20.3451 14.7027 19.8968 14.0621C18.9032 12.6202 17.2373 11.7879 15.3801 11.7879C13.5228 11.7879 11.8569 12.6529 10.864 14.0621C10.4157 14.7027 10.1271 15.4397 9.99906 16.2403C9.87107 17.0736 9.90275 18.0022 10.1591 18.9635C10.6394 21.077 11.9526 23.4795 14.0345 26.074C12.7213 27.5476 11.536 28.5409 10.3827 29.1815C9.5498 29.6621 8.7495 29.9184 7.94887 30.0141C7.08425 30.1104 6.25099 29.9821 5.51436 29.6941C3.94511 29.0535 2.82385 27.6116 2.59986 25.946C2.50386 25.1454 2.56754 24.3448 2.88817 23.4478C2.98385 23.1272 3.14449 22.8072 3.30448 22.4229C3.5288 21.9103 3.78447 21.3653 4.04111 20.821L4.07343 20.7573C6.28331 15.9843 8.6535 11.1156 11.12 6.37523L11.216 6.1826C11.4726 5.70261 11.729 5.18998 11.985 4.70935C12.2413 4.19672 12.5293 3.71609 12.8819 3.29945C13.5545 2.53147 14.4511 2.11452 15.4444 2.11452C16.4377 2.11452 17.3343 2.53147 18.0069 3.29945C18.3595 3.71705 18.6475 4.19768 18.9038 4.70935C19.1605 5.18998 19.4168 5.70261 19.6725 6.1826L19.7688 6.37523C22.1977 11.1353 24.5364 15.9409 26.7837 20.7893V20.8213C27.0403 21.3346 27.2643 21.9106 27.5206 22.4239C27.6806 22.8075 27.8409 23.1275 27.9369 23.4482C28.1926 24.2802 28.2886 25.0814 28.1603 25.914Z" fill="#191825" fill-opacity="0.5"/>
</svg>
