<svg width="213" height="32" viewBox="0 0 213 32" fill="none" xmlns="http://www.w3.org/2000/svg">
<path d="M23.055 19.2256C24.8767 24.1611 30.3673 26.6875 35.3043 24.87C40.2384 23.0399 42.7705 17.5549 40.9417 12.618C39.1186 7.67534 33.6365 5.15318 28.6925 6.9749C23.7526 8.80367 21.2305 14.2858 23.055 19.2256Z" fill="white"/>
<path d="M10.8619 25.4216C16.128 25.4216 20.397 21.1527 20.397 15.8866C20.397 10.6205 16.128 6.35156 10.8619 6.35156C5.59589 6.35156 1.3269 10.6205 1.3269 15.8866C1.3269 21.1527 5.59589 25.4216 10.8619 25.4216Z" fill="white"/>
<path d="M12.4877 15.7841C12.4877 16.7557 11.6983 17.5521 10.7267 17.5521C9.75089 17.5521 8.96289 16.7571 8.96289 15.7841C8.96289 14.8139 9.75089 14.0273 10.7267 14.0273C11.6983 14.0288 12.4877 14.8139 12.4877 15.7841Z" fill="#191825" fill-opacity="0.5"/>
<path d="M33.7363 15.7841C33.7363 16.7557 32.9497 17.5521 31.9782 17.5521C30.9995 17.5521 30.2144 16.7571 30.2144 15.7841C30.2144 14.8139 30.9995 14.0273 31.9782 14.0273C32.9512 14.0288 33.7363 14.8139 33.7363 15.7841Z" fill="#191825" fill-opacity="0.5"/>
<path d="M5.48755 15.7868C5.48755 18.6775 7.83883 21.0246 10.7296 21.0246C13.6132 21.0246 15.9631 18.6775 15.9631 15.7868C15.9631 12.9031 13.6118 10.5547 10.7296 10.5547C7.84024 10.5575 5.48755 12.9046 5.48755 15.7868ZM7.29373 15.7868C7.29373 13.8959 8.83865 12.358 10.7324 12.358C12.6233 12.358 14.1597 13.9001 14.1597 15.7868C14.1597 17.6834 12.6233 19.2241 10.7324 19.2241C8.83865 19.2255 7.29373 17.6862 7.29373 15.7868Z" fill="#191825" fill-opacity="0.5"/>
<path d="M26.739 15.7868C26.739 18.6775 29.0875 21.0246 31.9768 21.0246C34.8619 21.0246 37.2089 18.6775 37.2089 15.7868C37.2089 12.9031 34.8619 10.5547 31.9768 10.5547C29.0889 10.5575 26.739 12.9046 26.739 15.7868ZM28.5452 15.7868C28.5452 13.8959 30.0859 12.358 31.981 12.358C33.8719 12.358 35.407 13.9001 35.407 15.7868C35.407 17.6834 33.8719 19.2241 31.981 19.2241C30.0831 19.2255 28.5452 17.6862 28.5452 15.7868Z" fill="#191825" fill-opacity="0.5"/>
<path d="M28.3254 5.97362C29.4297 5.56691 30.5595 5.3692 31.6751 5.33814C28.6361 3.97821 25.196 3.28906 21.3845 3.28906C17.6027 3.28906 14.1118 3.99374 11.0742 5.29295C16.5718 5.40168 21.0414 9.70742 21.4269 15.1344C21.5201 13.8889 21.8251 12.6575 22.3632 11.491C23.548 8.91095 25.6677 6.95367 28.3254 5.97362Z" fill="white"/>
<path d="M40.5236 9.6225C41.0207 7.49434 42.5981 5.36477 42.5981 5.36477L35.5189 5.36054C31.5492 2.79743 26.728 1.4375 21.3872 1.4375C15.843 1.4375 10.8368 2.82991 6.88974 5.41137L0.253906 5.41702C0.253906 5.41702 1.81295 7.52258 2.3171 9.63521C1.02637 11.3905 0.259555 13.5469 0.259555 15.8883C0.259555 21.7334 5.01719 26.4882 10.865 26.4882C14.2077 26.4882 17.1888 24.9305 19.1333 22.5101L21.3914 25.8908L23.6664 22.4804C24.6903 23.7824 26.0107 24.8387 27.5584 25.5547C30.1328 26.7381 33.0179 26.8553 35.6742 25.8739C41.1605 23.8446 43.9778 17.7284 41.9485 12.2492C41.5927 11.2846 41.1069 10.4077 40.5236 9.6225ZM21.3858 3.28887C25.1972 3.28887 28.6373 3.97801 31.6763 5.33935C30.5593 5.36901 29.431 5.56813 28.3266 5.97201C25.6689 6.95206 23.5492 8.90935 22.3672 11.4852C21.8292 12.6516 21.5256 13.883 21.431 15.1286C21.0426 9.7044 16.5731 5.39866 11.0754 5.2871C14.1116 3.99213 17.6011 3.28887 21.3858 3.28887ZM17.8723 20.6248C16.3499 22.8702 13.7741 24.3501 10.8622 24.3501C6.19354 24.3501 2.39477 20.5485 2.39477 15.8898C2.39477 11.2183 6.19495 7.42373 10.8622 7.42373C15.5295 7.42373 19.3282 11.2183 19.3282 15.8898C19.3282 16.175 19.2731 16.4433 19.2435 16.7187C19.1023 18.1492 18.6419 19.4894 17.8723 20.6248ZM34.9328 23.8672C32.8117 24.6467 30.5113 24.5605 28.4566 23.613C26.9992 22.9379 25.8059 21.8802 24.9459 20.5669C24.5957 20.0359 24.2878 19.4725 24.0604 18.8553C23.802 18.1577 23.6735 17.4389 23.6043 16.7145C23.4631 15.2458 23.6763 13.7602 24.309 12.3833C25.258 10.3286 26.9469 8.7653 29.068 7.98013C33.4486 6.3646 38.3249 8.61138 39.9432 12.9905C41.5602 17.3697 39.312 22.246 34.9328 23.8672Z" fill="#191825" fill-opacity="0.5"/>
<path d="M55.1061 2.98674L52.0021 4.05859C52.0021 4.05859 52.0021 7.77545 52.0021 8.10872C51.6773 8.10872 48.562 8.10872 48.562 8.10872V10.8243C48.562 10.8243 51.5813 10.8243 51.9089 10.8243C51.9089 11.1774 51.9089 19.5431 51.9089 19.5431C51.9089 23.6865 53.3196 25.3867 56.7894 25.3867C57.6692 25.3867 58.5094 25.278 59.3525 25.0478L59.4895 25.0139L59.4513 22.198L59.2141 22.2884C58.532 22.5243 57.9982 22.6401 57.5858 22.6401C55.9562 22.6401 55.3518 21.7235 55.3518 19.2494C55.3518 19.2494 55.3518 11.176 55.3518 10.8286C55.6822 10.8286 59.3214 10.8286 59.3214 10.8286V8.10872C59.3214 8.10872 55.6836 8.10872 55.3518 8.10872C55.3518 7.77262 55.3518 2.90625 55.3518 2.90625L55.1061 2.98674Z" fill="#191825" fill-opacity="0.5"/>
<path d="M65.8384 10.8586C65.8384 9.90253 65.8384 8.10765 65.8384 8.10765H62.6892V25.0863H66.1321V16.5638C66.1321 12.991 67.6332 11.0224 70.3531 11.0224C70.7471 11.0224 71.1298 11.0817 71.5958 11.213L71.8189 11.2766L71.9319 7.92548L70.4505 7.8125C68.4551 7.81109 66.8438 8.88858 65.8384 10.8586Z" fill="#191825" fill-opacity="0.5"/>
<path d="M78.0682 8.10622H74.8089V25.0863H78.2518V8.10622H78.0682ZM74.4756 3.13111C74.4756 4.26085 75.3963 5.17736 76.5232 5.17736C77.653 5.17736 78.5709 4.26085 78.5709 3.13111C78.5709 2.00278 77.653 1.08204 76.5232 1.08204C75.3963 1.07921 74.4756 2.00278 74.4756 3.13111Z" fill="#191825" fill-opacity="0.5"/>
<path d="M90.4108 7.70703C88.0482 7.70703 86.0612 8.82548 84.7366 10.8604C84.7366 10.047 84.7366 8.10244 84.7366 8.10244H81.5889V31.9979H85.0346C85.0346 31.9979 85.0346 23.6534 85.0346 22.7355C86.2773 24.4258 88.0595 25.355 90.278 25.355C94.6304 25.355 97.442 21.7836 97.442 16.2691C97.442 11.1485 94.6148 7.70703 90.4108 7.70703ZM89.4491 22.5702C86.725 22.5702 85.0332 20.2415 85.0332 16.5007C85.0332 12.8897 86.8182 10.5568 89.5804 10.5568C92.2424 10.5568 93.8339 12.7683 93.8339 16.4654C93.8353 20.2288 92.1534 22.5702 89.4491 22.5702Z" fill="#191825" fill-opacity="0.5"/>
<path d="M107.505 7.71094C105.399 7.71094 103.555 8.10917 101.863 8.92259L101.759 8.97343L101.795 11.9122L102.066 11.7597C103.683 10.8559 105.214 10.3941 106.608 10.3941C109.102 10.3941 110.534 11.8232 110.534 14.3214C110.534 14.3214 110.534 14.3934 110.534 14.4668C110.23 14.4668 108.564 14.4668 108.564 14.4668C102.895 14.4668 99.7773 16.5201 99.7773 20.2426C99.7773 23.2322 102.028 25.3222 105.251 25.3222C107.622 25.3222 109.456 24.3902 110.764 22.6363C110.764 23.3184 110.764 25.0878 110.764 25.0878H113.875V14.8128C113.874 10.1032 111.731 7.71094 107.505 7.71094ZM110.528 17.921C110.528 20.8456 108.769 22.7379 106.046 22.7379C104.378 22.7379 103.215 21.6421 103.215 20.0746C103.215 18.0142 105.185 16.883 108.76 16.883C108.76 16.883 110.233 16.883 110.531 16.883C110.528 17.1471 110.528 17.921 110.528 17.921Z" fill="#191825" fill-opacity="0.5"/>
<path d="M128.497 0C128.497 0 128.497 9.46584 128.497 10.412C127.227 8.64678 125.46 7.71192 123.191 7.71192C118.978 7.71192 116.148 11.1802 116.148 16.3347C116.148 21.6445 119.019 25.3529 123.122 25.3529C125.552 25.3529 127.447 24.2768 128.761 22.1853C128.761 23.0312 128.761 25.0888 128.761 25.0888H131.944V0H128.497ZM124.014 22.5031C121.39 22.5031 119.761 20.2154 119.761 16.5324C119.761 12.8452 121.405 10.4614 123.952 10.4614C126.796 10.4614 128.494 12.7294 128.494 16.5324C128.497 20.1659 126.743 22.5031 124.014 22.5031Z" fill="#191825" fill-opacity="0.5"/>
<path d="M147.328 8.10547L142.447 17.9102L137.933 8.10547H134.054L142.375 25.0855L150.921 8.10547H147.328Z" fill="#191825" fill-opacity="0.5"/>
<path d="M155.933 8.10622H152.672V25.0863H156.119V8.10622H155.933ZM152.343 3.13111C152.343 4.26085 153.263 5.17736 154.391 5.17736C155.525 5.17736 156.439 4.26085 156.439 3.13111C156.439 2.00278 155.522 1.08204 154.391 1.08204C153.264 1.07921 152.343 2.00278 152.343 3.13111Z" fill="#191825" fill-opacity="0.5"/>
<path d="M160.156 12.4613C160.156 14.8493 161.797 16.1075 164.828 17.5903C166.738 18.5294 167.737 19.083 167.737 20.4062C167.737 21.7633 166.511 22.6403 164.607 22.6403C163.262 22.6403 161.767 22.2618 160.287 21.5346L160.036 21.4103L159.925 24.4041L160.039 24.4465C161.454 25.0099 162.941 25.2853 164.477 25.2853C168.689 25.2853 171.407 23.2786 171.407 20.1732C171.407 17.5847 169.686 16.2699 166.702 14.8775C164.517 13.8509 163.6 13.2535 163.6 12.1647C163.6 11.1338 164.62 10.4616 166.196 10.4616C167.62 10.4616 169.009 10.778 170.324 11.405L170.572 11.5194L170.722 8.59051L170.585 8.55097C169.159 8.12731 167.751 7.91408 166.395 7.91408C162.664 7.90843 160.156 9.73861 160.156 12.4613Z" fill="#191825" fill-opacity="0.5"/>
<path d="M182.15 7.71094C176.976 7.71094 173.763 11.1185 173.763 16.5978C173.763 22.0799 176.979 25.4818 182.15 25.4818C187.348 25.4818 190.575 22.0785 190.575 16.5978C190.575 11.1199 187.346 7.71094 182.15 7.71094ZM182.18 22.673C179.32 22.673 177.4 20.2186 177.4 16.5653C177.4 12.8922 179.32 10.4294 182.18 10.4294C185.086 10.4294 186.963 12.84 186.963 16.5653C186.963 20.2765 185.089 22.673 182.18 22.673Z" fill="#191825" fill-opacity="0.5"/>
<path d="M196.927 10.8586C196.927 9.90253 196.927 8.10765 196.927 8.10765H193.778V25.0863H197.221V16.5638C197.221 12.991 198.713 11.0224 201.437 11.0224C201.829 11.0224 202.209 11.0817 202.666 11.213L202.899 11.2766L203.006 7.92548L201.531 7.8125C199.544 7.81109 197.935 8.88858 196.927 10.8586Z" fill="#191825" fill-opacity="0.5"/>
<path d="M211.219 7.35641C211.784 7.92834 212.081 8.68809 212.081 9.50575C212.081 10.3601 211.762 11.1255 211.174 11.689C210.561 12.2708 209.801 12.5829 209.008 12.5829C208.179 12.5829 207.416 12.2567 206.823 11.6438C206.257 11.0563 205.936 10.305 205.936 9.50292C205.936 8.68527 206.262 7.89304 206.873 7.29145C207.444 6.73081 208.18 6.42578 209.008 6.42578C209.856 6.42719 210.629 6.74917 211.219 7.35641ZM207.254 7.69392C206.757 8.19101 206.491 8.83072 206.491 9.50575C206.491 10.1638 206.737 10.7696 207.211 11.2526C207.687 11.7497 208.319 12.018 208.995 12.018C209.653 12.018 210.286 11.7652 210.774 11.2907C211.255 10.829 211.519 10.1963 211.519 9.50433C211.519 8.8279 211.273 8.2136 210.807 7.74334C210.318 7.24626 209.698 6.985 209.008 6.985C208.327 6.985 207.73 7.2279 207.254 7.69392ZM209.064 7.75182C210.027 7.75182 210.522 8.10063 210.522 8.73187C210.522 9.16682 210.263 9.50433 209.804 9.64273L210.561 11.1241H209.536L208.905 9.78677H208.638V11.1241H207.709V7.75041L209.064 7.75182ZM208.631 9.23743H208.954C209.368 9.23743 209.567 9.09198 209.567 8.80248C209.567 8.47203 209.358 8.33646 208.905 8.33646H208.631V9.23743Z" fill="#191825" fill-opacity="0.5"/>
</svg>
