<svg width="118" height="20" viewBox="0 0 118 20" fill="none" xmlns="http://www.w3.org/2000/svg">
<mask id="mask0_1156_1799" style="mask-type:luminance" maskUnits="userSpaceOnUse" x="0" y="0" width="118" height="20">
<path d="M117.933 0H0.0554199V20H117.933V0Z" fill="white"/>
</mask>
<g mask="url(#mask0_1156_1799)">
<mask id="mask1_1156_1799" style="mask-type:luminance" maskUnits="userSpaceOnUse" x="0" y="0" width="118" height="20">
<path d="M117.933 0H0.0554199V20H117.933V0Z" fill="white"/>
</mask>
<g mask="url(#mask1_1156_1799)">
<path d="M5.42666 13.2351L2.91947 13.2328V10.2398C2.91947 9.59747 3.16812 9.26825 3.71376 9.18997H5.42206C6.63997 9.18997 7.42736 9.95893 7.43196 11.2022C7.43196 12.4799 6.66299 13.2351 5.42666 13.2351ZM2.91947 5.15866V4.37127C2.91947 3.68058 3.20956 3.35366 3.8519 3.31222H5.13427C6.23247 3.31222 6.89092 3.97067 6.89092 5.07117C6.89092 5.91151 6.43967 6.88998 5.17341 6.88998H2.91947V5.15866ZM8.62224 8.14703L8.171 7.89148L8.56469 7.55304C9.02745 7.15935 9.79411 6.26836 9.79411 4.73273C9.79411 2.38209 7.973 0.867188 5.15269 0.867188H1.57033C0.734596 0.897117 0.0646291 1.5809 0.0554199 2.41663V15.7515H5.21946C8.35518 15.7515 10.3766 14.0455 10.3766 11.4025C10.3766 9.98425 9.72044 8.76635 8.62224 8.14703Z" fill="#191825" fill-opacity="0.5"/>
</g>
<mask id="mask2_1156_1799" style="mask-type:luminance" maskUnits="userSpaceOnUse" x="0" y="0" width="118" height="20">
<path d="M117.933 0H0.0554199V20H117.933V0Z" fill="white"/>
</mask>
<g mask="url(#mask2_1156_1799)">
<path d="M114.325 4.80308C113.04 4.80538 111.822 5.39707 111.021 6.40548L110.798 6.68636L110.623 6.37095C110.052 5.33031 109.074 4.80539 107.706 4.80539C106.276 4.80539 105.316 5.60198 104.87 6.07855L104.579 6.39397L104.467 5.97725C104.305 5.37866 103.771 5.04943 102.966 5.04943H101.672L101.658 15.8011H104.596V11.0538C104.596 10.6371 104.646 10.2273 104.75 9.79675C105.031 8.65021 105.802 7.41618 107.098 7.5382C107.895 7.61648 108.286 8.2335 108.286 9.42378V15.7988H111.245V11.0515C111.245 10.5312 111.293 10.1398 111.41 9.75301C111.645 8.65712 112.453 7.5336 113.703 7.5336C114.608 7.5336 114.944 8.04471 114.944 9.42378V14.2264C114.944 15.3107 115.428 15.7988 116.515 15.7988H117.896L117.898 8.9357C117.907 6.19137 116.699 4.80308 114.325 4.80308ZM87.5886 12.0668C87.5793 12.076 86.3154 13.4114 84.6508 13.4114C83.1336 13.4114 81.6026 12.4812 81.6026 10.4046C81.6026 8.61108 82.7906 7.35633 84.492 7.35633C85.0445 7.35633 85.6707 7.55432 85.7697 7.88585L85.7836 7.94111C85.9125 8.41308 86.343 8.7377 86.8288 8.7354L88.4381 8.7377V7.3287C88.4381 5.47075 86.0783 4.80078 84.4874 4.80078C81.0892 4.80078 78.6257 7.16523 78.6257 10.423C78.6257 13.6784 81.0639 16.0429 84.4252 16.0429C87.3422 16.0429 88.9262 14.1251 88.9423 14.1089L89.0252 14.0053L87.7497 11.8895L87.5886 12.0668Z" fill="#191825" fill-opacity="0.5"/>
</g>
</g>
</svg>
